<svg width="45" height="45" viewBox="0 0 45 45" fill="none" xmlns="http://www.w3.org/2000/svg">
  <defs>
    <linearGradient id="logoGradient" x1="0%" y1="0%" x2="100%" y2="100%">
      <stop offset="0%" style="stop-color:#667eea;stop-opacity:1" />
      <stop offset="100%" style="stop-color:#764ba2;stop-opacity:1" />
    </linearGradient>
    <linearGradient id="brainGradient" x1="0%" y1="0%" x2="100%" y2="100%">
      <stop offset="0%" style="stop-color:#ffffff;stop-opacity:1" />
      <stop offset="100%" style="stop-color:#f8f9fa;stop-opacity:1" />
    </linearGradient>
  </defs>
  
  <!-- Background Circle -->
  <circle cx="22.5" cy="22.5" r="22" fill="url(#logoGradient)" stroke="rgba(255,255,255,0.2)" stroke-width="1"/>
  
  <!-- Brain Outline -->
  <path d="M12 18C12 15 14 12 18 12C20 12 22 13 24 14C26 13 28 12 30 12C34 12 36 15 36 18C36 20 35 22 33 24C35 26 36 28 36 30C36 33 34 36 30 36C28 36 26 35 24 34C22 35 20 36 18 36C14 36 12 33 12 30C12 28 13 26 15 24C13 22 12 20 12 18Z" 
        fill="url(#brainGradient)" 
        stroke="rgba(102, 126, 234, 0.3)" 
        stroke-width="0.5"/>
  
  <!-- Brain Folds -->
  <path d="M18 16C20 16 22 17 22 19C22 21 20 22 18 22C16 22 14 21 14 19C14 17 16 16 18 16Z" 
        fill="rgba(102, 126, 234, 0.2)"/>
  
  <path d="M30 16C32 16 34 17 34 19C34 21 32 22 30 22C28 22 26 21 26 19C26 17 28 16 30 16Z" 
        fill="rgba(102, 126, 234, 0.2)"/>
  
  <path d="M22 20C24 20 26 21 26 23C26 25 24 26 22 26C20 26 18 25 18 23C18 21 20 20 22 20Z" 
        fill="rgba(102, 126, 234, 0.2)"/>
  
  <!-- Neural Network Dots -->
  <circle cx="16" cy="20" r="1" fill="rgba(255,255,255,0.8)"/>
  <circle cx="20" cy="18" r="1" fill="rgba(255,255,255,0.8)"/>
  <circle cx="24" cy="18" r="1" fill="rgba(255,255,255,0.8)"/>
  <circle cx="28" cy="20" r="1" fill="rgba(255,255,255,0.8)"/>
  <circle cx="18" cy="24" r="1" fill="rgba(255,255,255,0.8)"/>
  <circle cx="22" cy="24" r="1" fill="rgba(255,255,255,0.8)"/>
  <circle cx="26" cy="24" r="1" fill="rgba(255,255,255,0.8)"/>
  
  <!-- Connection Lines -->
  <path d="M16 20L20 18" stroke="rgba(255,255,255,0.4)" stroke-width="0.5"/>
  <path d="M20 18L24 18" stroke="rgba(255,255,255,0.4)" stroke-width="0.5"/>
  <path d="M24 18L28 20" stroke="rgba(255,255,255,0.4)" stroke-width="0.5"/>
  <path d="M18 24L22 24" stroke="rgba(255,255,255,0.4)" stroke-width="0.5"/>
  <path d="M22 24L26 24" stroke="rgba(255,255,255,0.4)" stroke-width="0.5"/>
  <path d="M20 18L18 24" stroke="rgba(255,255,255,0.4)" stroke-width="0.5"/>
  <path d="M24 18L26 24" stroke="rgba(255,255,255,0.4)" stroke-width="0.5"/>
</svg>
